HIERARCHY
ROOT joint_Root
{
	OFFSET 0.0 0.0 0.0
	CHANNELS 6 Xposition Yposition Zposition Zrotation Xrotation Yrotation 
	JOINT Hips
	{
		OFFSET -17.1583 93.1646 452.98
		CHANNELS 6 Xposition Yposition Zposition Zrotation Xrotation Yrotation 
		JOINT Spine
		{
			OFFSET 15.7357 0.0 0.0
			CHANNELS 6 Xposition Yposition Zposition Zrotation Xrotation Yrotation 
			JOINT Chest
			{
				OFFSET 8.98455 -0.406207 0.0
				CHANNELS 6 Xposition Yposition Zposition Zrotation Xrotation Yrotation 
				JOINT Neck
				{
					OFFSET 16.3773 0.0 0.0
					CHANNELS 6 Xposition Yposition Zposition Zrotation Xrotation Yrotation 
					JOINT Head
					{
						OFFSET 6.45672 0.0 0.0
						CHANNELS 6 Xposition Yposition Zposition Zrotation Xrotation Yrotation 
						End Site
						{
							OFFSET 0.0 0.0 0.0
						}
					}
				}
				JOINT Shoulder_L
				{
					OFFSET 12.9942 -0.242716 4.98039
					CHANNELS 6 Xposition Yposition Zposition Zrotation Xrotation Yrotation 
					JOINT UpperArm_L
					{
						OFFSET 5.34809 0.0 0.0
						CHANNELS 6 Xposition Yposition Zposition Zrotation Xrotation Yrotation 
						JOINT LowerArm_L
						{
							OFFSET 24.3286 1.87007e-05 0.0
							CHANNELS 6 Xposition Yposition Zposition Zrotation Xrotation Yrotation 
							JOINT Hand_L
							{
								OFFSET 22.2916 0.0 0.0
								CHANNELS 6 Xposition Yposition Zposition Zrotation Xrotation Yrotation 
								End Site
								{
									OFFSET 0.0 0.0 0.0
								}
							}
						}
					}
				}
				JOINT Shoulder_R
				{
					OFFSET 12.9945 -0.242716 -4.98039
					CHANNELS 6 Xposition Yposition Zposition Zrotation Xrotation Yrotation 
					JOINT UpperArm_R
					{
						OFFSET -5.34813 0.0 0.0
						CHANNELS 6 Xposition Yposition Zposition Zrotation Xrotation Yrotation 
						JOINT LowerArm_R
						{
							OFFSET -24.3289 0.000322201 0.0
							CHANNELS 6 Xposition Yposition Zposition Zrotation Xrotation Yrotation 
							JOINT Hand_R
							{
								OFFSET -22.2915 -0.000108084 0.0
								CHANNELS 6 Xposition Yposition Zposition Zrotation Xrotation Yrotation 
								End Site
								{
									OFFSET 0.0 0.0 0.0
								}
							}
						}
					}
				}
			}
		}
		JOINT UpperLeg_L
		{
			OFFSET -2.19248 -6.46944 0.0
			CHANNELS 6 Xposition Yposition Zposition Zrotation Xrotation Yrotation 
			JOINT LowerLeg_L
			{
				OFFSET 39.0811 0.0 -1.23785e-05
				CHANNELS 6 Xposition Yposition Zposition Zrotation Xrotation Yrotation 
				JOINT Foot_L
				{
					OFFSET 40.9854 0.0 -1.26872e-05
					CHANNELS 6 Xposition Yposition Zposition Zrotation Xrotation Yrotation 
					JOINT Toes_L
					{
						OFFSET 11.7543 0.0 0.0
						CHANNELS 6 Xposition Yposition Zposition Zrotation Xrotation Yrotation 
						End Site
						{
							OFFSET 0.0 0.0 0.0
						}
					}
				}
			}
		}
		JOINT UpperLeg_R
		{
			OFFSET -2.19251 6.46944 0.0
			CHANNELS 6 Xposition Yposition Zposition Zrotation Xrotation Yrotation 
			JOINT LowerLeg_R
			{
				OFFSET -39.0811 -0.00228153 -0.0401928
				CHANNELS 6 Xposition Yposition Zposition Zrotation Xrotation Yrotation 
				JOINT Foot_R
				{
					OFFSET -40.9854 0.0 0.0
					CHANNELS 6 Xposition Yposition Zposition Zrotation Xrotation Yrotation 
					JOINT Toes_R
					{
						OFFSET -11.7543 0.0 0.0
						CHANNELS 6 Xposition Yposition Zposition Zrotation Xrotation Yrotation 
						End Site
						{
							OFFSET 0.0 0.0 0.0
						}
					}
				}
			}
		}
	}
}
MOTION
Frames:	8
Frame Time:	0.0333333
0.000000 0.000000 0.000000 0.000000 0.000000 -0.000000 -4.393960 91.260700 1.214630 84.681400 -1.446410 8.488830 15.735700 0.000005 -0.000001 92.897900 86.253200 -90.693300 8.984550 -0.406207 -0.000000 -0.282522 0.224006 4.407200 16.377300 -0.000001 -0.000001 13.665000 -0.552546 -12.741500 6.456720 -0.000001 -0.000000 -7.132910 -0.662827 -22.524500 12.994200 -0.242716 4.980390 -93.499600 8.628060 -67.821600 5.348090 -0.000007 -0.000001 -73.824800 -4.341600 -8.571190 24.328600 0.000019 0.000005 31.473100 -36.871600 -134.427000 22.291600 -0.000001 0.000005 38.993400 5.135780 4.281020 12.994500 -0.242716 -4.980390 87.744200 5.928860 -69.125600 -5.348130 -0.000001 -0.000004 -69.562700 32.864700 -4.984340 -24.328900 0.000322 -0.000009 1.144860 4.070850 -15.736000 -22.291500 -0.000108 -0.000004 -2.468260 5.291300 0.315061 -2.192480 -6.469440 -0.000000 -173.386000 3.128200 1.410730 39.081100 -0.000007 -0.000012 0.446953 -0.772009 30.069800 40.985400 -0.000006 -0.000013 0.036847 3.561400 -78.735100 11.754300 -0.000000 0.000003 -0.000345 0.173245 -9.549780 -2.192510 6.469440 -0.000001 -170.501000 8.459490 -171.420000 -39.081100 -0.002282 -0.040193 0.183309 -0.572222 17.460400 -40.985400 0.000008 0.000006 6.863350 2.318600 -73.492800 -11.754300 -0.000006 -0.000006 -0.012091 0.286318 -4.936500
0.000000 0.000000 0.000000 0.000000 0.000000 -0.000000 -4.320110 91.256600 1.212170 84.671400 -1.405380 8.561240 15.735700 0.000005 -0.000001 92.619800 86.218000 -90.382500 8.984550 -0.406207 -0.000000 -0.209782 0.190031 4.472260 16.377300 -0.000001 -0.000001 13.874200 -0.623149 -12.661500 6.456720 -0.000001 -0.000000 -7.389580 -0.646190 -22.424800 12.994200 -0.242716 4.980390 -93.526400 8.669120 -67.762700 5.348090 -0.000007 -0.000001 -73.734600 -4.304530 -8.715780 24.328600 0.000019 0.000005 31.235600 -36.661800 -134.554000 22.291600 -0.000001 0.000005 39.123400 5.127170 4.483940 12.994500 -0.242716 -4.980390 87.720500 5.971220 -69.061300 -5.348130 -0.000001 -0.000004 -69.530800 32.857700 -4.923490 -24.328900 0.000322 -0.000009 1.101180 3.937560 -15.652000 -22.291500 -0.000108 -0.000004 -2.542430 5.292480 0.282187 -2.192480 -6.469440 -0.000000 -173.447000 3.171410 1.454890 39.081100 -0.000007 -0.000012 0.453384 -0.781652 30.116400 40.985400 -0.000006 -0.000013 0.097705 3.561750 -78.771000 11.754300 -0.000000 0.000003 -0.000404 0.174166 -9.512360 -2.192510 6.469440 -0.000001 -170.546000 8.447450 -171.398000 -39.081100 -0.002282 -0.040193 0.185744 -0.576451 17.560300 -40.985400 0.000008 0.000006 6.798210 2.272700 -73.566400 -11.754300 -0.000006 -0.000006 -0.012196 0.287043 -4.906800
0.000000 0.000000 0.000000 0.000000 0.000000 -0.000000 -4.235490 91.263900 1.196850 84.670000 -1.332610 8.546910 15.735700 0.000005 -0.000001 92.437200 86.204900 -90.176700 8.984550 -0.406207 -0.000000 -0.181875 0.166002 4.518630 16.377300 -0.000001 -0.000001 14.148000 -0.725489 -12.525400 6.456720 -0.000001 -0.000000 -7.755190 -0.608992 -22.385100 12.994200 -0.242716 4.980390 -93.581200 8.747340 -67.631100 5.348090 -0.000007 -0.000001 -73.564400 -4.315510 -8.826100 24.328600 0.000019 0.000005 31.134400 -36.547400 -134.591000 22.291600 -0.000001 0.000005 38.849700 5.125680 4.518570 12.994500 -0.242716 -4.980390 87.688300 6.034310 -68.993100 -5.348130 -0.000001 -0.000004 -69.548800 32.736100 -4.887410 -24.328900 0.000322 -0.000009 1.156280 4.198690 -15.425400 -22.291500 -0.000108 -0.000004 -2.537610 5.292880 0.271073 -2.192480 -6.469440 -0.000000 -173.497000 3.187780 1.416630 39.081100 -0.000007 -0.000012 0.453235 -0.781557 30.111200 40.985400 -0.000006 -0.000013 0.162138 3.588990 -78.747500 11.754300 -0.000000 0.000003 -0.000394 0.174013 -9.518570 -2.192510 6.469440 -0.000001 -170.623000 8.556410 -171.445000 -39.081100 -0.002282 -0.040193 0.184831 -0.572638 17.587000 -40.985400 0.000008 0.000006 6.749600 2.324540 -73.551900 -11.754300 -0.000006 -0.000006 -0.012210 0.287139 -4.902880
0.000000 0.000000 0.000000 0.000000 0.000000 -0.000000 -4.153250 91.274500 1.200030 84.716600 -1.249720 8.636520 15.735700 0.000005 -0.000001 92.391300 86.164400 -90.132700 8.984550 -0.406207 -0.000000 -0.100794 0.165037 4.514510 16.377300 -0.000001 -0.000001 14.358700 -0.785517 -12.440700 6.456720 -0.000001 -0.000000 -7.899640 -0.622840 -22.218700 12.994200 -0.242716 4.980390 -93.616400 8.844640 -67.654700 5.348090 -0.000007 -0.000001 -73.410800 -4.702410 -9.039680 24.328600 0.000019 0.000005 31.129100 -36.407100 -134.502000 22.291600 -0.000001 0.000005 38.955500 5.138640 4.213530 12.994500 -0.242716 -4.980390 87.662700 6.075980 -68.912900 -5.348130 -0.000001 -0.000004 -69.652400 32.708000 -4.749750 -24.328900 0.000322 -0.000009 1.178030 4.314520 -15.300500 -22.291500 -0.000108 -0.000004 -2.442780 5.292400 0.284402 -2.192480 -6.469440 -0.000000 -173.603000 3.204840 1.516570 39.081100 -0.000007 -0.000012 0.447719 -0.774234 30.040900 40.985400 -0.000006 -0.000013 0.237193 3.622710 -78.645000 11.754300 -0.000000 0.000003 -0.000308 0.172663 -9.573420 -2.192510 6.469440 -0.000001 -170.718000 8.520730 -171.370000 -39.081100 -0.002282 -0.040193 0.185068 -0.572995 17.598300 -40.985400 0.000008 0.000006 6.673230 2.226330 -73.534300 -11.754300 -0.000006 -0.000006 -0.012119 0.286509 -4.928670
0.000000 0.000000 0.000000 0.000000 0.000000 -0.000000 -4.056180 91.293100 1.183370 84.764500 -1.164370 8.660140 15.735700 0.000005 -0.000001 92.364800 86.137100 -90.116600 8.984550 -0.406207 -0.000000 -0.046117 0.165525 4.493710 16.377300 -0.000001 -0.000001 14.540900 -0.850556 -12.331100 6.456720 -0.000001 -0.000000 -8.017550 -0.637524 -22.049300 12.994200 -0.242716 4.980390 -93.631300 8.858370 -67.602600 5.348090 -0.000007 -0.000001 -73.321500 -4.838880 -9.122520 24.328600 0.000019 0.000005 31.090100 -36.226900 -134.423000 22.291600 -0.000001 0.000005 38.996700 5.125550 4.521600 12.994500 -0.242716 -4.980390 87.640200 6.107030 -68.825600 -5.348130 -0.000001 -0.000004 -69.765500 32.720900 -4.669820 -24.328900 0.000322 -0.000009 1.172390 4.342550 -15.137000 -22.291500 -0.000108 -0.000004 -2.506790 5.293200 0.262321 -2.192480 -6.469440 -0.000000 -173.712000 3.194570 1.567290 39.081100 -0.000007 -0.000012 0.444456 -0.771708 29.940500 40.985400 -0.000006 -0.000013 0.323888 3.676200 -78.582000 11.754300 -0.000000 0.000003 -0.000349 0.173309 -9.547190 -2.192510 6.469440 -0.000001 -170.792000 8.401290 -171.365000 -39.081100 -0.002282 -0.040193 0.184502 -0.571740 17.583000 -40.985400 0.000008 0.000006 6.575150 2.061440 -73.470800 -11.754300 -0.000006 -0.000006 -0.011898 0.284980 -4.991280
0.000000 0.000000 0.000000 0.000000 0.000000 -0.000000 -3.959550 91.311400 1.134940 84.805400 -1.095120 8.644680 15.735700 0.000005 -0.000001 92.417200 86.126600 -90.168600 8.984550 -0.406207 -0.000000 -0.025579 0.173850 4.494500 16.377300 -0.000001 -0.000001 14.732900 -0.888814 -12.229300 6.456720 -0.000001 -0.000000 -8.109560 -0.671060 -21.904200 12.994200 -0.242716 4.980390 -93.659500 8.912890 -67.568900 5.348090 -0.000007 -0.000001 -73.270700 -5.138550 -9.180180 24.328600 0.000019 0.000005 31.092600 -36.047800 -134.298000 22.291600 -0.000001 0.000005 38.722300 5.118910 4.676680 12.994500 -0.242716 -4.980390 87.627800 6.127020 -68.787000 -5.348130 -0.000001 -0.000004 -69.859100 32.777100 -4.552980 -24.328900 0.000322 -0.000009 1.136610 4.231180 -15.064400 -22.291500 -0.000108 -0.000004 -2.566250 5.291640 0.305674 -2.192480 -6.469440 -0.000000 -173.808000 3.149850 1.521370 39.081100 -0.000007 -0.000012 0.445369 -0.774973 29.886700 40.985400 -0.000006 -0.000013 0.413054 3.746220 -78.508800 11.754300 -0.000000 0.000003 -0.000534 0.176183 -9.430430 -2.192510 6.469440 -0.000001 -170.928000 8.518790 -171.441000 -39.081100 -0.002282 -0.040193 0.184465 -0.569923 17.632100 -40.985400 0.000008 0.000006 6.516500 2.139220 -73.515000 -11.754300 -0.000006 -0.000006 -0.012225 0.287242 -4.898650
0.000000 0.000000 0.000000 0.000000 0.000000 -0.000000 -3.848520 91.333700 1.107210 84.870000 -0.960460 8.714180 15.735700 0.000005 -0.000001 92.221900 86.066300 -89.981600 8.984550 -0.406207 -0.000000 0.096409 0.155088 4.477520 16.377300 -0.000001 -0.000001 14.880700 -0.978062 -12.125000 6.456720 -0.000001 -0.000000 -8.264880 -0.657791 -21.785600 12.994200 -0.242716 4.980390 -93.690800 8.975370 -67.536200 5.348090 -0.000007 -0.000001 -73.206100 -5.336850 -9.215470 24.328600 0.000019 0.000005 31.344800 -35.962400 -133.955000 22.291600 -0.000001 0.000005 38.887200 5.124150 4.554340 12.994500 -0.242716 -4.980390 87.609400 6.159460 -68.739200 -5.348130 -0.000001 -0.000004 -69.938200 32.664000 -4.482040 -24.328900 0.000322 -0.000009 1.182890 4.402740 -15.067500 -22.291500 -0.000108 -0.000004 -2.477730 5.292460 0.282848 -2.192480 -6.469440 -0.000000 -173.944000 3.215930 1.604730 39.081100 -0.000007 -0.000012 0.432404 -0.756279 29.760000 40.985400 -0.000006 -0.000013 0.502804 3.791390 -78.353200 11.754300 -0.000000 0.000003 -0.000230 0.171409 -9.624340 -2.192510 6.469440 -0.000001 -171.053000 8.495450 -171.381000 -39.081100 -0.002282 -0.040193 0.184365 -0.570291 17.612400 -40.985400 0.000008 0.000006 6.420210 2.033700 -73.548900 -11.754300 -0.000006 -0.000006 -0.012453 0.288800 -4.834820
0.000000 0.000000 0.000000 0.000000 0.000000 -0.000000 -3.739350 91.354500 1.061620 84.919900 -0.814341 8.762630 15.735700 0.000005 -0.000001 92.121600 86.005800 -89.877100 8.984550 -0.406207 -0.000000 0.217886 0.147894 4.485620 16.377300 -0.000001 -0.000001 15.049900 -1.046560 -12.060300 6.456720 -0.000001 -0.000000 -8.434410 -0.676731 -21.666500 12.994200 -0.242716 4.980390 -93.710700 9.040710 -67.572500 5.348090 -0.000007 -0.000001 -73.145700 -5.605630 -9.177800 24.328600 0.000019 0.000005 31.325800 -35.585800 -133.715000 22.291600 -0.000001 0.000005 38.779000 5.132470 4.359300 12.994500 -0.242716 -4.980390 87.594500 6.186890 -68.704300 -5.348130 -0.000001 -0.000004 -69.884100 32.762000 -4.507540 -24.328900 0.000322 -0.000009 1.147560 4.269020 -15.074300 -22.291500 -0.000108 -0.000004 -2.616790 5.293500 0.253811 -2.192480 -6.469440 -0.000000 -174.085000 3.304670 1.626170 39.081100 -0.000007 -0.000012 0.433797 -0.761076 29.683400 40.985400 -0.000006 -0.000013 0.595259 3.839260 -78.261200 11.754300 -0.000000 0.000003 -0.000417 0.174370 -9.504050 -2.192510 6.469440 -0.000001 -171.250000 8.728010 -171.397000 -39.081100 -0.002282 -0.040193 0.182366 -0.562747 17.649000 -40.985400 0.000008 0.000006 6.358980 2.180030 -73.524500 -11.754300 -0.000006 -0.000006 -0.012298 0.287742 -4.878160
